<mxfile host="app.diagrams.net" agent="Mozilla/5.0 (Windows NT 10.0; Win64; x64) AppleWebKit/537.36 (KHTML, like Gecko) Chrome/127.0.0.0 Safari/537.36" version="24.7.6">
  <diagram name="第 1 页" id="OvkKJ9LMGdIOYqMALdrB">
    <mxGraphModel dx="1050" dy="530" grid="1" gridSize="10" guides="1" tooltips="1" connect="1" arrows="1" fold="1" page="1" pageScale="1" pageWidth="827" pageHeight="1169" math="0" shadow="0">
      <root>
        <mxCell id="0" />
        <mxCell id="1" parent="0" />
        <mxCell id="ZnyS9Pg-73tXfxkxJHSs-4" style="edgeStyle=orthogonalEdgeStyle;rounded=0;orthogonalLoop=1;jettySize=auto;html=1;entryX=0.5;entryY=0;entryDx=0;entryDy=0;" edge="1" parent="1" source="ZnyS9Pg-73tXfxkxJHSs-1" target="ZnyS9Pg-73tXfxkxJHSs-2">
          <mxGeometry relative="1" as="geometry" />
        </mxCell>
        <mxCell id="ZnyS9Pg-73tXfxkxJHSs-1" value="输入多传感器数据" style="rounded=1;whiteSpace=wrap;html=1;" vertex="1" parent="1">
          <mxGeometry x="332.5" y="20" width="120" height="60" as="geometry" />
        </mxCell>
        <mxCell id="ZnyS9Pg-73tXfxkxJHSs-9" style="edgeStyle=orthogonalEdgeStyle;rounded=0;orthogonalLoop=1;jettySize=auto;html=1;entryX=0.5;entryY=0;entryDx=0;entryDy=0;" edge="1" parent="1" source="ZnyS9Pg-73tXfxkxJHSs-2" target="ZnyS9Pg-73tXfxkxJHSs-6">
          <mxGeometry relative="1" as="geometry" />
        </mxCell>
        <mxCell id="ZnyS9Pg-73tXfxkxJHSs-10" style="edgeStyle=orthogonalEdgeStyle;rounded=0;orthogonalLoop=1;jettySize=auto;html=1;entryX=0.5;entryY=0;entryDx=0;entryDy=0;" edge="1" parent="1" source="ZnyS9Pg-73tXfxkxJHSs-2" target="ZnyS9Pg-73tXfxkxJHSs-7">
          <mxGeometry relative="1" as="geometry" />
        </mxCell>
        <mxCell id="ZnyS9Pg-73tXfxkxJHSs-2" value="数据预处理" style="rhombus;whiteSpace=wrap;html=1;" vertex="1" parent="1">
          <mxGeometry x="350" y="160" width="85" height="80" as="geometry" />
        </mxCell>
        <mxCell id="ZnyS9Pg-73tXfxkxJHSs-5" value="yolo算法" style="rounded=0;whiteSpace=wrap;html=1;" vertex="1" parent="1">
          <mxGeometry x="110" y="310" width="120" height="60" as="geometry" />
        </mxCell>
        <mxCell id="ZnyS9Pg-73tXfxkxJHSs-12" value="" style="edgeStyle=orthogonalEdgeStyle;rounded=0;orthogonalLoop=1;jettySize=auto;html=1;" edge="1" parent="1" source="ZnyS9Pg-73tXfxkxJHSs-6" target="ZnyS9Pg-73tXfxkxJHSs-11">
          <mxGeometry relative="1" as="geometry" />
        </mxCell>
        <mxCell id="ZnyS9Pg-73tXfxkxJHSs-6" value="贝叶斯算法" style="rounded=0;whiteSpace=wrap;html=1;" vertex="1" parent="1">
          <mxGeometry x="332.5" y="310" width="120" height="60" as="geometry" />
        </mxCell>
        <mxCell id="ZnyS9Pg-73tXfxkxJHSs-7" value="时间序列分析" style="rounded=0;whiteSpace=wrap;html=1;" vertex="1" parent="1">
          <mxGeometry x="580" y="310" width="120" height="60" as="geometry" />
        </mxCell>
        <mxCell id="ZnyS9Pg-73tXfxkxJHSs-8" style="edgeStyle=orthogonalEdgeStyle;rounded=0;orthogonalLoop=1;jettySize=auto;html=1;entryX=0.407;entryY=-0.013;entryDx=0;entryDy=0;entryPerimeter=0;" edge="1" parent="1" source="ZnyS9Pg-73tXfxkxJHSs-2" target="ZnyS9Pg-73tXfxkxJHSs-5">
          <mxGeometry relative="1" as="geometry" />
        </mxCell>
        <mxCell id="ZnyS9Pg-73tXfxkxJHSs-18" style="edgeStyle=orthogonalEdgeStyle;rounded=0;orthogonalLoop=1;jettySize=auto;html=1;entryX=0.5;entryY=0;entryDx=0;entryDy=0;" edge="1" parent="1" source="ZnyS9Pg-73tXfxkxJHSs-11" target="ZnyS9Pg-73tXfxkxJHSs-13">
          <mxGeometry relative="1" as="geometry" />
        </mxCell>
        <mxCell id="ZnyS9Pg-73tXfxkxJHSs-11" value="目标检测与分类" style="rhombus;whiteSpace=wrap;html=1;rounded=0;" vertex="1" parent="1">
          <mxGeometry x="340" y="430" width="110" height="100" as="geometry" />
        </mxCell>
        <mxCell id="ZnyS9Pg-73tXfxkxJHSs-22" style="edgeStyle=orthogonalEdgeStyle;rounded=0;orthogonalLoop=1;jettySize=auto;html=1;entryX=1;entryY=0.5;entryDx=0;entryDy=0;" edge="1" parent="1" source="ZnyS9Pg-73tXfxkxJHSs-13" target="ZnyS9Pg-73tXfxkxJHSs-19">
          <mxGeometry relative="1" as="geometry">
            <Array as="points">
              <mxPoint x="508" y="660" />
              <mxPoint x="508" y="800" />
              <mxPoint x="435" y="800" />
            </Array>
          </mxGeometry>
        </mxCell>
        <mxCell id="ZnyS9Pg-73tXfxkxJHSs-13" value="岸边钓鱼行为精准识别" style="rounded=0;whiteSpace=wrap;html=1;" vertex="1" parent="1">
          <mxGeometry x="580" y="630" width="120" height="60" as="geometry" />
        </mxCell>
        <mxCell id="ZnyS9Pg-73tXfxkxJHSs-20" value="" style="edgeStyle=orthogonalEdgeStyle;rounded=0;orthogonalLoop=1;jettySize=auto;html=1;" edge="1" parent="1" source="ZnyS9Pg-73tXfxkxJHSs-14" target="ZnyS9Pg-73tXfxkxJHSs-19">
          <mxGeometry relative="1" as="geometry" />
        </mxCell>
        <mxCell id="ZnyS9Pg-73tXfxkxJHSs-14" value="水下鱼群检测" style="rounded=0;whiteSpace=wrap;html=1;" vertex="1" parent="1">
          <mxGeometry x="330" y="650" width="120" height="60" as="geometry" />
        </mxCell>
        <mxCell id="ZnyS9Pg-73tXfxkxJHSs-21" style="edgeStyle=orthogonalEdgeStyle;rounded=0;orthogonalLoop=1;jettySize=auto;html=1;entryX=0;entryY=0.5;entryDx=0;entryDy=0;" edge="1" parent="1" source="ZnyS9Pg-73tXfxkxJHSs-15" target="ZnyS9Pg-73tXfxkxJHSs-19">
          <mxGeometry relative="1" as="geometry">
            <Array as="points">
              <mxPoint x="300" y="660" />
              <mxPoint x="300" y="810" />
              <mxPoint x="355" y="810" />
            </Array>
          </mxGeometry>
        </mxCell>
        <mxCell id="ZnyS9Pg-73tXfxkxJHSs-15" value="水上漂浮物检测" style="rounded=0;whiteSpace=wrap;html=1;" vertex="1" parent="1">
          <mxGeometry x="90" y="630" width="120" height="60" as="geometry" />
        </mxCell>
        <mxCell id="ZnyS9Pg-73tXfxkxJHSs-16" style="edgeStyle=orthogonalEdgeStyle;rounded=0;orthogonalLoop=1;jettySize=auto;html=1;entryX=0.42;entryY=0.053;entryDx=0;entryDy=0;entryPerimeter=0;" edge="1" parent="1" source="ZnyS9Pg-73tXfxkxJHSs-11" target="ZnyS9Pg-73tXfxkxJHSs-15">
          <mxGeometry relative="1" as="geometry" />
        </mxCell>
        <mxCell id="ZnyS9Pg-73tXfxkxJHSs-17" style="edgeStyle=orthogonalEdgeStyle;rounded=0;orthogonalLoop=1;jettySize=auto;html=1;entryX=0.58;entryY=0.04;entryDx=0;entryDy=0;entryPerimeter=0;" edge="1" parent="1" source="ZnyS9Pg-73tXfxkxJHSs-11" target="ZnyS9Pg-73tXfxkxJHSs-14">
          <mxGeometry relative="1" as="geometry" />
        </mxCell>
        <mxCell id="ZnyS9Pg-73tXfxkxJHSs-25" style="edgeStyle=orthogonalEdgeStyle;rounded=0;orthogonalLoop=1;jettySize=auto;html=1;entryX=0.5;entryY=0;entryDx=0;entryDy=0;" edge="1" parent="1" source="ZnyS9Pg-73tXfxkxJHSs-19" target="ZnyS9Pg-73tXfxkxJHSs-23">
          <mxGeometry relative="1" as="geometry">
            <Array as="points">
              <mxPoint x="250" y="850" />
            </Array>
          </mxGeometry>
        </mxCell>
        <mxCell id="ZnyS9Pg-73tXfxkxJHSs-26" style="edgeStyle=orthogonalEdgeStyle;rounded=0;orthogonalLoop=1;jettySize=auto;html=1;" edge="1" parent="1" source="ZnyS9Pg-73tXfxkxJHSs-19" target="ZnyS9Pg-73tXfxkxJHSs-24">
          <mxGeometry relative="1" as="geometry" />
        </mxCell>
        <mxCell id="ZnyS9Pg-73tXfxkxJHSs-19" value="决策融合模块" style="rhombus;whiteSpace=wrap;html=1;rounded=0;" vertex="1" parent="1">
          <mxGeometry x="355" y="810" width="80" height="80" as="geometry" />
        </mxCell>
        <mxCell id="ZnyS9Pg-73tXfxkxJHSs-23" value="航线规划" style="rounded=0;whiteSpace=wrap;html=1;" vertex="1" parent="1">
          <mxGeometry x="200" y="960" width="120" height="60" as="geometry" />
        </mxCell>
        <mxCell id="ZnyS9Pg-73tXfxkxJHSs-24" value="任务分配" style="rounded=0;whiteSpace=wrap;html=1;" vertex="1" parent="1">
          <mxGeometry x="520" y="950" width="120" height="60" as="geometry" />
        </mxCell>
        <mxCell id="ZnyS9Pg-73tXfxkxJHSs-27" value="执行模块" style="rounded=0;whiteSpace=wrap;html=1;" vertex="1" parent="1">
          <mxGeometry x="360" y="1080" width="120" height="60" as="geometry" />
        </mxCell>
      </root>
    </mxGraphModel>
  </diagram>
</mxfile>
